# xmcd
#
# Track frame offsets: 
#        150
#        22188
#        41866
#        64752
#        90267
#        127598
#        152754
#        180816
#        210263
#        234177
#        265859
#        279847
#        315952
#
# Disc length: 4433 seconds
#
# Revision: 0
# Processed by: cddbd v1.5.2PL0 Copyright (c) Steve Scherf et al.
# Submitted via: ExactAudioCopy v0.95b4
#
DISCID=92114f0d
DTITLE=Linsey Alexander - My Days Are So Long
DYEAR=2006
DGENRE=Blues
TTITLE0=Where Did You Take Your Clothes Off Last Night
TTITLE1=My Days Are So Long
TTITLE2=I Had A Dream
TTITLE3=I'm In Love With A Woman
TTITLE4=How Could You Do Me Like You Done Me
TTITLE5=That Ain't Right
TTITLE6=I Gotta Move
TTITLE7=Mona Lisa Was A Man
TTITLE8=Reefer And Blow
TTITLE9=I'm Tired
TTITLE10=User
TTITLE11=Higher
TTITLE12=Thanks
EXTD=
EXTT0=
EXTT1=
EXTT2=
EXTT3=
EXTT4=
EXTT5=
EXTT6=
EXTT7=
EXTT8=
EXTT9=
EXTT10=
EXTT11=
EXTT12=
PLAYORDER=
